<svg xmlns="http://www.w3.org/2000/svg" version="1.1" xmlns:xlink="http://www.w3.org/1999/xlink" xmlns:svgjs="http://svgjs.dev/svgjs" width="1440" height="560" preserveAspectRatio="none" viewBox="0 0 1440 560"><g mask="url(&quot;#SvgjsMask1000&quot;)" fill="none"><rect width="1440" height="560" x="0" y="0" fill="#0e2a47"></rect><path d="M957.62 379.6 a42.06 42.06 0 1 0 84.12 0 a42.06 42.06 0 1 0 -84.12 0z" fill="#e73635"></path><path d="M1175.57 312.29 a8.1 8.1 0 1 0 16.2 0 a8.1 8.1 0 1 0 -16.2 0z" stroke="#d3b714"></path><path d="M55.58 325.4 a49.76 49.76 0 1 0 99.52 0 a49.76 49.76 0 1 0 -99.52 0z" stroke="#037b0b"></path><path d="M1151.89 192 a37.43 37.43 0 1 0 74.86 0 a37.43 37.43 0 1 0 -74.86 0z" fill="#037b0b"></path><path d="M553.05 76.2L582.55 76.2L582.55 98.63L553.05 98.63z" fill="#d3b714"></path><path d="M93.12 168.91a19.8 19.8 0 1 0-10.39 38.21z" fill="#037b0b"></path><path d="M991.7 499.83L1006.63 499.83L1006.63 514.76L991.7 514.76z" stroke="#d3b714"></path><path d="M344.13 354.99L394.35 354.99L394.35 405.21L344.13 405.21z" fill="#e73635"></path><path d="M498.18 298.68L514.03 298.68L514.03 300.03L498.18 300.03z" fill="#d3b714"></path><path d="M261.48 184.7a49.61 49.61 0 1 0 96.26-24.08z" stroke="#d3b714"></path><path d="M256.7 253.14 a13.29 13.29 0 1 0 26.58 0 a13.29 13.29 0 1 0 -26.58 0z" fill="#037b0b"></path><path d="M1017.98 249.46a7.97 7.97 0 1 0 12.58 9.79z" fill="#d3b714"></path><path d="M827.3 411.36 a35.88 35.88 0 1 0 71.76 0 a35.88 35.88 0 1 0 -71.76 0z" fill="#e73635"></path><path d="M699.79 411.33L751.12 411.33L751.12 426.92L699.79 426.92z" stroke="#e73635"></path><path d="M869.99 429.44 a41.54 41.54 0 1 0 83.08 0 a41.54 41.54 0 1 0 -83.08 0z" stroke="#d3b714"></path><path d="M29.82 93.85 a34.47 34.47 0 1 0 68.94 0 a34.47 34.47 0 1 0 -68.94 0z" stroke="#d3b714"></path><path d="M242.46 2.07L271.04 2.07L271.04 21.87L242.46 21.87z" stroke="#e73635"></path><path d="M55.6 94.7L95.04 94.7L95.04 134.14L55.6 134.14z" fill="#037b0b"></path><path d="M746.4 75.75L750.69 75.75L750.69 80.04L746.4 80.04z" stroke="#d3b714"></path><path d="M844.56 164.54L853.88 164.54L853.88 173.86L844.56 173.86z" stroke="#e73635"></path><path d="M283.9 206.46L286.7 206.46L286.7 209.26L283.9 209.26z" fill="#037b0b"></path><path d="M437.5 470.22 a12.27 12.27 0 1 0 24.54 0 a12.27 12.27 0 1 0 -24.54 0z" fill="#e73635"></path><path d="M104.7 90.19a40.52 40.52 0 1 0-42.34-69.09z" fill="#037b0b"></path><path d="M734.14 119.25 a18.25 18.25 0 1 0 36.5 0 a18.25 18.25 0 1 0 -36.5 0z" stroke="#d3b714"></path><path d="M695.45 499.08L702.84 499.08L702.84 506.47L695.45 506.47z" fill="#d3b714"></path><path d="M1108.15 335.66a45.71 45.71 0 1 0 56.83 71.62z" stroke="#037b0b"></path><path d="M377.48 128.73L384.61 128.73L384.61 135.86L377.48 135.86z" stroke="#e73635"></path><path d="M1217.15 586.93a38.98 38.98 0 1 0-6.71-77.67z" stroke="#037b0b"></path><path d="M114.6 486.2a26.94 26.94 0 1 0-48.95 22.52z" stroke="#d3b714"></path><path d="M827.68 51.47 a3.53 3.53 0 1 0 7.06 0 a3.53 3.53 0 1 0 -7.06 0z" fill="#e73635"></path><path d="M183.86 356.32a10.48 10.48 0 1 0 20.78 2.76z" stroke="#e73635"></path><path d="M110.02 138a31.45 31.45 0 1 0 57.43-25.66z" stroke="#e73635"></path><path d="M106.63 316.14 a44.19 44.19 0 1 0 88.38 0 a44.19 44.19 0 1 0 -88.38 0z" fill="#037b0b"></path></g><defs><mask id="SvgjsMask1000"><rect width="1440" height="560" fill="#ffffff"></rect></mask></defs></svg>