<svg id="visual" viewBox="0 0 900 600" width="900" height="600" xmlns="http://www.w3.org/2000/svg" xmlns:xlink="http://www.w3.org/1999/xlink" version="1.1"><rect x="0" y="0" width="900" height="600" fill="#ADD8E6"></rect><path d="M0 372L129 414L257 433L386 369L514 397L643 434L771 437L900 408L900 601L771 601L643 601L514 601L386 601L257 601L129 601L0 601Z" fill="#00ffff"></path><path d="M0 425L129 438L257 409L386 435L514 433L643 431L771 430L900 462L900 601L771 601L643 601L514 601L386 601L257 601L129 601L0 601Z" fill="#7effff"></path><path d="M0 462L129 444L257 456L386 500L514 486L643 505L771 459L900 485L900 601L771 601L643 601L514 601L386 601L257 601L129 601L0 601Z" fill="#b2ffff"></path><path d="M0 515L129 506L257 494L386 540L514 497L643 519L771 518L900 531L900 601L771 601L643 601L514 601L386 601L257 601L129 601L0 601Z" fill="#dbffff"></path><path d="M0 538L129 534L257 570L386 570L514 571L643 555L771 560L900 539L900 601L771 601L643 601L514 601L386 601L257 601L129 601L0 601Z" fill="#ffffff"></path></svg>