<svg xmlns="http://www.w3.org/2000/svg" version="1.1" xmlns:xlink="http://www.w3.org/1999/xlink" xmlns:svgjs="http://svgjs.dev/svgjs" width="1440" height="560" preserveAspectRatio="none" viewBox="0 0 1440 560"><g mask="url(&quot;#SvgjsMask1060&quot;)" fill="none"><rect width="1440" height="560" x="0" y="0" fill="#0e2a47"></rect><path d="M1422 557L1060 919" stroke-width="10" stroke="url(&quot;#SvgjsLinearGradient1061&quot;)" stroke-linecap="round" class="BottomLeft"></path><path d="M548 292L294 546" stroke-width="10" stroke="url(&quot;#SvgjsLinearGradient1062&quot;)" stroke-linecap="round" class="TopRight"></path><path d="M610 181L314 477" stroke-width="10" stroke="url(&quot;#SvgjsLinearGradient1063&quot;)" stroke-linecap="round" class="BottomLeft"></path><path d="M1036 43L1422 -343" stroke-width="10" stroke="url(&quot;#SvgjsLinearGradient1064&quot;)" stroke-linecap="round" class="TopRight"></path><path d="M1345 546L1043 848" stroke-width="8" stroke="url(&quot;#SvgjsLinearGradient1061&quot;)" stroke-linecap="round" class="BottomLeft"></path><path d="M778 79L457 400" stroke-width="8" stroke="url(&quot;#SvgjsLinearGradient1061&quot;)" stroke-linecap="round" class="BottomLeft"></path><path d="M1109 204L1485 -172" stroke-width="10" stroke="url(&quot;#SvgjsLinearGradient1065&quot;)" stroke-linecap="round" class="BottomLeft"></path><path d="M1230 461L1431 260" stroke-width="6" stroke="url(&quot;#SvgjsLinearGradient1061&quot;)" stroke-linecap="round" class="BottomLeft"></path><path d="M854 398L1003 249" stroke-width="8" stroke="url(&quot;#SvgjsLinearGradient1065&quot;)" stroke-linecap="round" class="BottomLeft"></path><path d="M928 455L1290 93" stroke-width="6" stroke="url(&quot;#SvgjsLinearGradient1061&quot;)" stroke-linecap="round" class="BottomLeft"></path><path d="M792 283L1104 -29" stroke-width="10" stroke="url(&quot;#SvgjsLinearGradient1061&quot;)" stroke-linecap="round" class="BottomLeft"></path><path d="M1000 355L773 582" stroke-width="6" stroke="url(&quot;#SvgjsLinearGradient1061&quot;)" stroke-linecap="round" class="BottomLeft"></path><path d="M267 187L512 -58" stroke-width="6" stroke="url(&quot;#SvgjsLinearGradient1061&quot;)" stroke-linecap="round" class="BottomLeft"></path><path d="M858 399L1183 74" stroke-width="10" stroke="url(&quot;#SvgjsLinearGradient1065&quot;)" stroke-linecap="round" class="BottomLeft"></path><path d="M1004 431L1359 76" stroke-width="8" stroke="url(&quot;#SvgjsLinearGradient1061&quot;)" stroke-linecap="round" class="BottomLeft"></path><path d="M1000 521L724 797" stroke-width="8" stroke="url(&quot;#SvgjsLinearGradient1063&quot;)" stroke-linecap="round" class="BottomLeft"></path><path d="M1263 411L1620 54" stroke-width="10" stroke="url(&quot;#SvgjsLinearGradient1065&quot;)" stroke-linecap="round" class="BottomLeft"></path><path d="M474 411L236 649" stroke-width="6" stroke="url(&quot;#SvgjsLinearGradient1063&quot;)" stroke-linecap="round" class="BottomLeft"></path><path d="M328 119L624 -177" stroke-width="6" stroke="url(&quot;#SvgjsLinearGradient1063&quot;)" stroke-linecap="round" class="BottomLeft"></path><path d="M309 266L108 467" stroke-width="10" stroke="url(&quot;#SvgjsLinearGradient1062&quot;)" stroke-linecap="round" class="TopRight"></path><path d="M138 83L541 -320" stroke-width="10" stroke="url(&quot;#SvgjsLinearGradient1065&quot;)" stroke-linecap="round" class="BottomLeft"></path><path d="M1139 165L940 364" stroke-width="6" stroke="url(&quot;#SvgjsLinearGradient1065&quot;)" stroke-linecap="round" class="BottomLeft"></path><path d="M32 343L-162 537" stroke-width="6" stroke="url(&quot;#SvgjsLinearGradient1064&quot;)" stroke-linecap="round" class="TopRight"></path><path d="M849 459L571 737" stroke-width="8" stroke="url(&quot;#SvgjsLinearGradient1065&quot;)" stroke-linecap="round" class="BottomLeft"></path><path d="M1089 497L915 671" stroke-width="8" stroke="url(&quot;#SvgjsLinearGradient1062&quot;)" stroke-linecap="round" class="TopRight"></path><path d="M904 423L1248 79" stroke-width="8" stroke="url(&quot;#SvgjsLinearGradient1066&quot;)" stroke-linecap="round" class="TopRight"></path><path d="M943 428L684 687" stroke-width="10" stroke="url(&quot;#SvgjsLinearGradient1061&quot;)" stroke-linecap="round" class="BottomLeft"></path><path d="M198 23L-110 331" stroke-width="6" stroke="url(&quot;#SvgjsLinearGradient1062&quot;)" stroke-linecap="round" class="TopRight"></path><path d="M633 188L415 406" stroke-width="6" stroke="url(&quot;#SvgjsLinearGradient1061&quot;)" stroke-linecap="round" class="BottomLeft"></path><path d="M284 274L-44 602" stroke-width="8" stroke="url(&quot;#SvgjsLinearGradient1061&quot;)" stroke-linecap="round" class="BottomLeft"></path><path d="M36 154L335 -145" stroke-width="10" stroke="url(&quot;#SvgjsLinearGradient1065&quot;)" stroke-linecap="round" class="BottomLeft"></path><path d="M368 19L783 -396" stroke-width="8" stroke="url(&quot;#SvgjsLinearGradient1063&quot;)" stroke-linecap="round" class="BottomLeft"></path><path d="M874 194L525 543" stroke-width="6" stroke="url(&quot;#SvgjsLinearGradient1066&quot;)" stroke-linecap="round" class="TopRight"></path><path d="M559 246L876 -71" stroke-width="8" stroke="url(&quot;#SvgjsLinearGradient1063&quot;)" stroke-linecap="round" class="BottomLeft"></path><path d="M591 102L987 -294" stroke-width="6" stroke="url(&quot;#SvgjsLinearGradient1064&quot;)" stroke-linecap="round" class="TopRight"></path><path d="M511 554L924 141" stroke-width="10" stroke="url(&quot;#SvgjsLinearGradient1066&quot;)" stroke-linecap="round" class="TopRight"></path><path d="M845 42L1010 -123" stroke-width="6" stroke="url(&quot;#SvgjsLinearGradient1066&quot;)" stroke-linecap="round" class="TopRight"></path><path d="M1068 528L1234 362" stroke-width="6" stroke="url(&quot;#SvgjsLinearGradient1062&quot;)" stroke-linecap="round" class="TopRight"></path><path d="M1003 111L631 483" stroke-width="6" stroke="url(&quot;#SvgjsLinearGradient1062&quot;)" stroke-linecap="round" class="TopRight"></path></g><defs><mask id="SvgjsMask1060"><rect width="1440" height="560" fill="#ffffff"></rect></mask><linearGradient x1="100%" y1="0%" x2="0%" y2="100%" id="SvgjsLinearGradient1061"><stop stop-color="rgba(178, 235, 242, 0)" offset="0"></stop><stop stop-color="rgba(178, 235, 242, 1)" offset="1"></stop></linearGradient><linearGradient x1="0%" y1="100%" x2="100%" y2="0%" id="SvgjsLinearGradient1062"><stop stop-color="rgba(224, 247, 250, 0)" offset="0"></stop><stop stop-color="rgba(224, 247, 250, 1)" offset="1"></stop></linearGradient><linearGradient x1="100%" y1="0%" x2="0%" y2="100%" id="SvgjsLinearGradient1063"><stop stop-color="rgba(224, 247, 250, 0)" offset="0"></stop><stop stop-color="rgba(224, 247, 250, 1)" offset="1"></stop></linearGradient><linearGradient x1="0%" y1="100%" x2="100%" y2="0%" id="SvgjsLinearGradient1064"><stop stop-color="rgba(178, 235, 242, 0)" offset="0"></stop><stop stop-color="rgba(178, 235, 242, 1)" offset="1"></stop></linearGradient><linearGradient x1="100%" y1="0%" x2="0%" y2="100%" id="SvgjsLinearGradient1065"><stop stop-color="rgba(255, 255, 255, 0)" offset="0"></stop><stop stop-color="rgba(255, 255, 255, 1)" offset="1"></stop></linearGradient><linearGradient x1="0%" y1="100%" x2="100%" y2="0%" id="SvgjsLinearGradient1066"><stop stop-color="rgba(255, 255, 255, 0)" offset="0"></stop><stop stop-color="rgba(255, 255, 255, 1)" offset="1"></stop></linearGradient></defs></svg>