<svg id="visual" viewBox="0 0 900 600" width="900" height="600" xmlns="http://www.w3.org/2000/svg" xmlns:xlink="http://www.w3.org/1999/xlink" version="1.1"><rect x="0" y="0" width="900" height="600" fill="#ADD8E6"></rect><path d="M0 487L21.5 489.8C43 492.7 86 498.3 128.8 498C171.7 497.7 214.3 491.3 257.2 472C300 452.7 343 420.3 385.8 423.8C428.7 427.3 471.3 466.7 514.2 468.7C557 470.7 600 435.3 642.8 429.2C685.7 423 728.3 446 771.2 442.5C814 439 857 409 878.5 394L900 379L900 601L878.5 601C857 601 814 601 771.2 601C728.3 601 685.7 601 642.8 601C600 601 557 601 514.2 601C471.3 601 428.7 601 385.8 601C343 601 300 601 257.2 601C214.3 601 171.7 601 128.8 601C86 601 43 601 21.5 601L0 601Z" fill="#00ffff" stroke-linecap="round" stroke-linejoin="miter"></path></svg>